Coordinates
version=1
nRows=11
nColumns=40
inDegrees=yes

Units are S.I. units (second, meters, Newtons, ...)
Angles are in degrees.

endheader
time	pelvis_tilt	pelvis_list	pelvis_rotation	pelvis_tx	pelvis_ty	pelvis_tz	hip_flexion_r	hip_adduction_r	hip_rotation_r	knee_angle_r	knee_angle_r_beta	ankle_angle_r	subtalar_angle_r	mtp_angle_r	hip_flexion_l	hip_adduction_l	hip_rotation_l	knee_angle_l	knee_angle_l_beta	ankle_angle_l	subtalar_angle_l	mtp_angle_l	lumbar_extension	lumbar_bending	lumbar_rotation	arm_flex_r	arm_add_r	arm_rot_r	elbow_flex_r	pro_sup_r	wrist_flex_r	wrist_dev_r	arm_flex_l	arm_add_l	arm_rot_l	elbow_flex_l	pro_sup_l	wrist_flex_l	wrist_dev_l
     25.28250000	     -6.92830854	     -4.49271053	     -6.51376462	      0.94616554	      0.92390816	      0.48868250	     20.72789737	      2.52179795	     -7.24867032	     18.95679957	     18.95679957	      7.58099271	      3.82012557	     -4.76435117	      4.93390437	    -10.18951666	    -13.01384012	     25.56006037	     25.56006037	     17.55710975	    -12.30748485	      0.41871412	     -8.98770460	      7.58541267	      0.43611651	     -5.32397960	    -14.67940060	    -13.54803528	     33.40368059	     46.10973215	      0.00000000	      0.00000000	     22.15202822	    -17.20028467	    -12.16002339	     70.50672647	     48.05492168	      0.00000000	      0.00000000
     25.30085714	     -6.67305250	     -4.58580400	     -6.03159590	      0.94762674	      0.92466110	      0.49247246	     19.88105795	      2.72202362	     -7.60056184	     18.87988875	     18.87988875	      8.05778100	      3.68460163	     -4.74422105	      6.00331811	    -10.92005621	    -12.12349614	     28.67175013	     28.67175013	     16.56922902	    -13.39776309	     -0.24256619	     -9.13292621	      7.73777188	      0.41374367	     -4.44756494	    -15.13215466	    -13.73547074	     33.95331759	     46.10619027	      0.00000000	      0.00000000	     21.17599118	    -16.68946882	    -11.42216705	     69.20784785	     47.97050202	      0.00000000	      0.00000000
     25.31921429	     -6.40119429	     -4.69447718	     -5.57347090	      0.94882199	      0.92523396	      0.49623748	     19.08207539	      2.96253069	     -7.84099733	     18.88742231	     18.88742231	      8.56022203	      3.49209046	     -4.79544551	      7.33588146	    -11.66997814	    -11.06428408	     32.20051139	     32.20051139	     15.35250125	    -14.61887750	     -0.86422241	     -9.34687195	      7.86201885	      0.36995276	     -3.37254308	    -15.59177868	    -13.84712072	     34.59899147	     46.09536733	      0.00000000	      0.00000000	     20.15414779	    -16.20919093	    -10.71822289	     67.72283479	     47.88588151	      0.00000000	      0.00000000
     25.33757143	     -6.32419176	     -4.67619752	     -5.10258786	      0.94967271	      0.92532972	      0.49980584	     18.61843776	      3.11904606	     -7.85025574	     19.04494228	     19.04494228	      9.06907455	      2.84163964	     -4.74128806	      9.12411862	    -12.21309382	     -9.73955530	     35.95797627	     35.95797627	     13.55457526	    -16.22696754	     -1.89282843	     -9.22091845	      7.87901983	      0.24288583	     -2.40414928	    -16.00089616	    -13.83526230	     35.72541399	     46.05484730	      0.00000000	      0.00000000	     19.42633412	    -15.88730799	     -9.26792116	     64.42466609	     47.71649058	      0.00000000	      0.00000000
     25.35592857	     -6.02422973	     -4.82076432	     -4.64428749	      0.95044892	      0.92545220	      0.50337000	     17.93337467	      3.43880757	     -7.89256309	     19.25590448	     19.25590448	      9.62326443	      2.22510908	     -4.60554149	     10.84190507	    -12.94654311	     -8.51062044	     39.98046072	     39.98046072	     11.83022039	    -17.34402592	     -2.48857957	     -9.43678745	      8.01101926	      1.24539291	     -2.43969671	    -16.72394082	    -13.57550589	     37.69613642	     45.95646951	      0.00000000	      0.00000000	     19.80910014	    -14.94172319	     -6.84925845	     60.11732276	     47.45915556	      0.00000000	      0.00000000
     25.37428571	     -5.75638397	     -4.96545543	     -4.16276486	      0.95099682	      0.92523348	      0.50676675	     17.39486850	      3.72921479	     -8.03064578	     19.63780117	     19.63780117	     10.12978520	      1.65181096	     -4.73569456	     12.78736884	    -13.62368511	     -7.18994876	     44.18291239	     44.18291239	     10.25528135	    -18.11451871	     -2.27255013	     -9.66958311	      8.07072619	      1.08009179	     -1.05765007	    -17.12545908	    -13.63934339	     38.60332838	     45.93406708	      0.00000000	      0.00000000	     18.41651455	    -14.41196636	     -6.36341372	     58.53566345	     47.38568526	      0.00000000	      0.00000000
     25.39264286	     -5.47458005	     -4.98481508	     -3.73150202	      0.95131866	      0.92483468	      0.51004566	     17.04097216	      3.96366567	     -7.69439483	     20.33141081	     20.33141081	     10.77205963	      0.36938654	     -4.52082612	     14.91242423	    -13.94289089	     -5.63290255	     48.60136366	     48.60136366	     10.11876652	    -18.40905413	      2.25781189	     -9.84745632	      7.97689735	      1.43968423	     -0.36847535	    -17.71575498	    -12.87940087	     40.50492242	     45.82234691	      0.00000000	      0.00000000	     18.34396998	    -13.66979593	     -5.14397565	     53.68047619	     47.21485072	      0.00000000	      0.00000000
     25.41100000	     -5.22807045	     -5.00997924	     -3.22473077	      0.95149288	      0.92415708	      0.51292677	     16.77641369	      4.13561124	     -7.59549244	     21.10232175	     21.10232175	     11.41195624	     -0.68816231	     -4.30901611	     17.06932245	    -14.15996633	     -4.10429957	     52.71151230	     52.71151230	      9.64588747	    -18.67651532	      5.93349750	     -9.99927412	      7.91914097	      1.41003327	      0.76086957	    -18.23137493	    -12.52822465	     42.24853817	     45.74672016	      0.00000000	      0.00000000	     17.51537601	    -12.92781534	     -4.35240369	     50.36986777	     47.09422095	      0.00000000	      0.00000000
     25.42935714	     -4.85629873	     -5.01693004	     -2.73263831	      0.95159130	      0.92340862	      0.51570908	     16.51241567	      4.28823297	     -7.42298289	     22.11496590	     22.11496590	     12.08300030	     -1.87327542	     -4.24879145	     18.94429051	    -14.34283718	     -2.86221834	     56.32008443	     56.32008443	      8.69741104	    -18.92713244	      8.25703211	    -10.31718926	      7.82331580	      1.02941326	      2.40473859	    -18.49034317	    -12.41093941	     43.70905251	     45.69762258	      0.00000000	      0.00000000	     16.25430590	    -12.43346403	     -3.90742306	     47.56489684	     47.00880916	      0.00000000	      0.00000000
     25.44771429	     -4.65267829	     -4.97903237	     -2.24828291	      0.95147069	      0.92231238	      0.51828911	     16.44782053	      4.39653612	     -7.28490695	     23.12782509	     23.12782509	     12.87323051	     -2.95364715	     -3.75739317	     21.01037697	    -14.25695731	     -1.49216635	     59.69957198	     59.69957198	      8.98689412	    -19.03335387	     12.92684878	    -10.45421434	      7.57374473	      1.25648050	      3.42075455	    -18.94305114	    -11.97282013	     45.56988883	     45.61849079	      0.00000000	      0.00000000	     15.64475514	    -11.55615819	     -3.48644763	     43.41073795	     46.91728916	      0.00000000	      0.00000000
     25.46607143	     -4.37434567	     -5.00602877	     -1.71551004	      0.95130792	      0.92110292	      0.52070465	     16.33212336	      4.53152002	     -7.31003973	     24.18870322	     24.18870322	     13.50736149	     -3.91489998	     -3.90814564	     22.73535914	    -14.37615781	     -0.56965759	     62.30199588	     62.30199588	      8.12982580	    -19.19240770	     13.46724500	    -10.71620394	      7.41352724	      0.97842948	      5.11342822	    -19.07550036	    -12.12602051	     46.82807364	     45.59000261	      0.00000000	      0.00000000	     13.93653818	    -11.14164017	     -3.23735054	     41.69329987	     46.85681354	      0.00000000	      0.00000000
